<mxfile host="65bd71144e">
    <diagram id="AXt7ZoIOafjHyBUSU1S0" name="Page-1">
        <mxGraphModel dx="1030" dy="522" grid="1" gridSize="10" guides="1" tooltips="1" connect="1" arrows="1" fold="1" page="1" pageScale="1" pageWidth="827" pageHeight="1169" math="0" shadow="0">
            <root>
                <mxCell id="0"/>
                <mxCell id="1" parent="0"/>
                <mxCell id="hUSzY4UsVdZUKXyNIxQj-22" value="User" style="swimlane;childLayout=stackLayout;horizontal=1;startSize=30;horizontalStack=0;rounded=1;fontSize=14;fontStyle=0;strokeWidth=2;resizeParent=0;resizeLast=1;shadow=0;dashed=0;align=center;" parent="1" vertex="1">
                    <mxGeometry x="70" y="40" width="160" height="140" as="geometry">
                        <mxRectangle x="70" y="40" width="60" height="30" as="alternateBounds"/>
                    </mxGeometry>
                </mxCell>
                <mxCell id="hUSzY4UsVdZUKXyNIxQj-23" value="ID(PK)INT&#10;name VARCHAR&#10;lastName VARCHAR&#10;phone VARCHAR&#10;email VARCHAR&#10;password VARCHAR&#10;img VARCHAR" style="align=left;strokeColor=none;fillColor=none;spacingLeft=4;fontSize=12;verticalAlign=top;resizable=0;rotatable=0;part=1;" parent="hUSzY4UsVdZUKXyNIxQj-22" vertex="1">
                    <mxGeometry y="30" width="160" height="110" as="geometry"/>
                </mxCell>
                <mxCell id="hUSzY4UsVdZUKXyNIxQj-27" value="product" style="swimlane;childLayout=stackLayout;horizontal=1;startSize=30;horizontalStack=0;rounded=1;fontSize=14;fontStyle=0;strokeWidth=2;resizeParent=0;resizeLast=1;shadow=0;dashed=0;align=center;" parent="1" vertex="1">
                    <mxGeometry x="310" y="32.5" width="160" height="155" as="geometry"/>
                </mxCell>
                <mxCell id="hUSzY4UsVdZUKXyNIxQj-28" value="ID(PK)INT&#10;name VARCHAR&#10;ID_category(FK)&#10;price FLOAT&#10;img JSON&#10;" style="align=left;strokeColor=none;fillColor=none;spacingLeft=4;fontSize=12;verticalAlign=top;resizable=0;rotatable=0;part=1;" parent="hUSzY4UsVdZUKXyNIxQj-27" vertex="1">
                    <mxGeometry y="30" width="160" height="125" as="geometry"/>
                </mxCell>
                <mxCell id="hUSzY4UsVdZUKXyNIxQj-32" style="edgeStyle=orthogonalEdgeStyle;rounded=0;orthogonalLoop=1;jettySize=auto;html=1;exitX=0.5;exitY=1;exitDx=0;exitDy=0;" parent="hUSzY4UsVdZUKXyNIxQj-27" source="hUSzY4UsVdZUKXyNIxQj-28" target="hUSzY4UsVdZUKXyNIxQj-28" edge="1">
                    <mxGeometry relative="1" as="geometry"/>
                </mxCell>
                <mxCell id="hUSzY4UsVdZUKXyNIxQj-29" value="category" style="swimlane;childLayout=stackLayout;horizontal=1;startSize=30;horizontalStack=0;rounded=1;fontSize=14;fontStyle=0;strokeWidth=2;resizeParent=0;resizeLast=1;shadow=0;dashed=0;align=center;" parent="1" vertex="1">
                    <mxGeometry x="70" y="240" width="160" height="170" as="geometry"/>
                </mxCell>
                <mxCell id="hUSzY4UsVdZUKXyNIxQj-30" value="ID(PK)INT&#10;name VARCHAR&#10;" style="align=left;strokeColor=none;fillColor=none;spacingLeft=4;fontSize=12;verticalAlign=top;resizable=0;rotatable=0;part=1;" parent="hUSzY4UsVdZUKXyNIxQj-29" vertex="1">
                    <mxGeometry y="30" width="160" height="140" as="geometry"/>
                </mxCell>
                <mxCell id="hUSzY4UsVdZUKXyNIxQj-34" value="caracteristicas" style="swimlane;childLayout=stackLayout;horizontal=1;startSize=30;horizontalStack=0;rounded=1;fontSize=14;fontStyle=0;strokeWidth=2;resizeParent=0;resizeLast=1;shadow=0;dashed=0;align=center;" parent="1" vertex="1">
                    <mxGeometry x="560" y="240" width="160" height="170" as="geometry"/>
                </mxCell>
                <mxCell id="2" value="id(pk)&lt;br&gt;name VARCHAR&lt;br&gt;value VARCHAR" style="text;html=1;align=left;verticalAlign=middle;resizable=0;points=[];autosize=1;strokeColor=none;" parent="hUSzY4UsVdZUKXyNIxQj-34" vertex="1">
                    <mxGeometry y="30" width="160" height="140" as="geometry"/>
                </mxCell>
                <mxCell id="hUSzY4UsVdZUKXyNIxQj-37" value="category_characteristic" style="swimlane;childLayout=stackLayout;horizontal=1;startSize=30;horizontalStack=0;rounded=1;fontSize=14;fontStyle=0;strokeWidth=2;resizeParent=0;resizeLast=1;shadow=0;dashed=0;align=center;" parent="1" vertex="1">
                    <mxGeometry x="300" y="310" width="160" height="120" as="geometry"/>
                </mxCell>
                <mxCell id="hUSzY4UsVdZUKXyNIxQj-38" value="id(pk)&#10;id_categoty(fk)&#10;id_characteristic(fk)" style="align=left;strokeColor=none;fillColor=none;spacingLeft=4;fontSize=12;verticalAlign=top;resizable=0;rotatable=0;part=1;" parent="hUSzY4UsVdZUKXyNIxQj-37" vertex="1">
                    <mxGeometry y="30" width="160" height="90" as="geometry"/>
                </mxCell>
            </root>
        </mxGraphModel>
    </diagram>
</mxfile>